<mxfile host="app.diagrams.net" agent="Mozilla/5.0 (Windows NT 10.0; Win64; x64) AppleWebKit/537.36 (KHTML, like Gecko) Chrome/141.0.0.0 Safari/537.36 Edg/141.0.0.0" version="28.2.5">
  <diagram id="n4RG28VcgyLvL5a97sLb" name="Page-1">
    <mxGraphModel dx="1700" dy="784" grid="1" gridSize="10" guides="1" tooltips="1" connect="1" arrows="1" fold="1" page="1" pageScale="1" pageWidth="827" pageHeight="1169" math="0" shadow="0">
      <root>
        <mxCell id="pzczP67oPYf6B7buiO8z-0" />
        <mxCell id="pzczP67oPYf6B7buiO8z-1" parent="pzczP67oPYf6B7buiO8z-0" />
        <mxCell id="pzczP67oPYf6B7buiO8z-2" value="BaseAlgoClass" style="swimlane;fontStyle=2;align=center;verticalAlign=top;childLayout=stackLayout;horizontal=1;startSize=26;horizontalStack=0;resizeParent=1;resizeLast=0;collapsible=1;marginBottom=0;rounded=0;shadow=0;strokeWidth=1;fillColor=#f8cecc;strokeColor=#b85450;" parent="pzczP67oPYf6B7buiO8z-1" vertex="1">
          <mxGeometry x="200" y="20" width="190" height="138" as="geometry">
            <mxRectangle x="230" y="140" width="160" height="26" as="alternateBounds" />
          </mxGeometry>
        </mxCell>
        <mxCell id="pzczP67oPYf6B7buiO8z-6" value="" style="line;html=1;strokeWidth=1;align=left;verticalAlign=middle;spacingTop=-1;spacingLeft=3;spacingRight=3;rotatable=0;labelPosition=right;points=[];portConstraint=eastwest;" parent="pzczP67oPYf6B7buiO8z-2" vertex="1">
          <mxGeometry y="26" width="190" height="8" as="geometry" />
        </mxCell>
        <mxCell id="pzczP67oPYf6B7buiO8z-7" value="+TemplateMethod() : void" style="text;align=left;verticalAlign=top;spacingLeft=4;spacingRight=4;overflow=hidden;rotatable=0;points=[[0,0.5],[1,0.5]];portConstraint=eastwest;" parent="pzczP67oPYf6B7buiO8z-2" vertex="1">
          <mxGeometry y="34" width="190" height="26" as="geometry" />
        </mxCell>
        <mxCell id="WlvoB2wxqtfAINA2jhiv-2" value="+HookMethod() : void" style="text;align=left;verticalAlign=top;spacingLeft=4;spacingRight=4;overflow=hidden;rotatable=0;points=[[0,0.5],[1,0.5]];portConstraint=eastwest;" vertex="1" parent="pzczP67oPYf6B7buiO8z-2">
          <mxGeometry y="60" width="190" height="26" as="geometry" />
        </mxCell>
        <mxCell id="WlvoB2wxqtfAINA2jhiv-3" value="#PrimitiveOperation() : void" style="text;align=left;verticalAlign=top;spacingLeft=4;spacingRight=4;overflow=hidden;rotatable=0;points=[[0,0.5],[1,0.5]];portConstraint=eastwest;fontStyle=1" vertex="1" parent="pzczP67oPYf6B7buiO8z-2">
          <mxGeometry y="86" width="190" height="26" as="geometry" />
        </mxCell>
        <mxCell id="WlvoB2wxqtfAINA2jhiv-4" value="-privateInternalOperation() : void" style="text;align=left;verticalAlign=top;spacingLeft=4;spacingRight=4;overflow=hidden;rotatable=0;points=[[0,0.5],[1,0.5]];portConstraint=eastwest;" vertex="1" parent="pzczP67oPYf6B7buiO8z-2">
          <mxGeometry y="112" width="190" height="26" as="geometry" />
        </mxCell>
        <mxCell id="pzczP67oPYf6B7buiO8z-8" value="AlgoClass-1" style="swimlane;fontStyle=0;align=center;verticalAlign=top;childLayout=stackLayout;horizontal=1;startSize=26;horizontalStack=0;resizeParent=1;resizeLast=0;collapsible=1;marginBottom=0;rounded=0;shadow=0;strokeWidth=1;fillColor=#ffe6cc;strokeColor=#d79b00;" parent="pzczP67oPYf6B7buiO8z-1" vertex="1">
          <mxGeometry x="60" y="280" width="180" height="138" as="geometry">
            <mxRectangle x="130" y="380" width="160" height="26" as="alternateBounds" />
          </mxGeometry>
        </mxCell>
        <mxCell id="pzczP67oPYf6B7buiO8z-11" value="" style="line;html=1;strokeWidth=1;align=left;verticalAlign=middle;spacingTop=-1;spacingLeft=3;spacingRight=3;rotatable=0;labelPosition=right;points=[];portConstraint=eastwest;" parent="pzczP67oPYf6B7buiO8z-8" vertex="1">
          <mxGeometry y="26" width="180" height="8" as="geometry" />
        </mxCell>
        <mxCell id="WlvoB2wxqtfAINA2jhiv-5" value="#PrimitiveOperation() : void" style="text;align=left;verticalAlign=top;spacingLeft=4;spacingRight=4;overflow=hidden;rotatable=0;points=[[0,0.5],[1,0.5]];portConstraint=eastwest;fontStyle=1" vertex="1" parent="pzczP67oPYf6B7buiO8z-8">
          <mxGeometry y="34" width="180" height="26" as="geometry" />
        </mxCell>
        <mxCell id="pzczP67oPYf6B7buiO8z-14" value="" style="endArrow=block;endSize=10;endFill=0;shadow=0;strokeWidth=1;rounded=0;edgeStyle=elbowEdgeStyle;elbow=vertical;" parent="pzczP67oPYf6B7buiO8z-1" source="pzczP67oPYf6B7buiO8z-8" target="pzczP67oPYf6B7buiO8z-2" edge="1">
          <mxGeometry width="160" relative="1" as="geometry">
            <mxPoint x="180" y="103" as="sourcePoint" />
            <mxPoint x="180" y="103" as="targetPoint" />
          </mxGeometry>
        </mxCell>
        <mxCell id="pzczP67oPYf6B7buiO8z-15" value="AlgoClass-2" style="swimlane;fontStyle=0;align=center;verticalAlign=top;childLayout=stackLayout;horizontal=1;startSize=26;horizontalStack=0;resizeParent=1;resizeLast=0;collapsible=1;marginBottom=0;rounded=0;shadow=0;strokeWidth=1;fillColor=#fff2cc;strokeColor=#d6b656;" parent="pzczP67oPYf6B7buiO8z-1" vertex="1">
          <mxGeometry x="360" y="280" width="180" height="138" as="geometry">
            <mxRectangle x="340" y="380" width="170" height="26" as="alternateBounds" />
          </mxGeometry>
        </mxCell>
        <mxCell id="pzczP67oPYf6B7buiO8z-17" value="" style="line;html=1;strokeWidth=1;align=left;verticalAlign=middle;spacingTop=-1;spacingLeft=3;spacingRight=3;rotatable=0;labelPosition=right;points=[];portConstraint=eastwest;" parent="pzczP67oPYf6B7buiO8z-15" vertex="1">
          <mxGeometry y="26" width="180" height="8" as="geometry" />
        </mxCell>
        <mxCell id="WlvoB2wxqtfAINA2jhiv-7" value="+HookMethod() : void" style="text;align=left;verticalAlign=top;spacingLeft=4;spacingRight=4;overflow=hidden;rotatable=0;points=[[0,0.5],[1,0.5]];portConstraint=eastwest;fontStyle=3" vertex="1" parent="pzczP67oPYf6B7buiO8z-15">
          <mxGeometry y="34" width="180" height="26" as="geometry" />
        </mxCell>
        <mxCell id="WlvoB2wxqtfAINA2jhiv-6" value="#PrimitiveOperation() : void" style="text;align=left;verticalAlign=top;spacingLeft=4;spacingRight=4;overflow=hidden;rotatable=0;points=[[0,0.5],[1,0.5]];portConstraint=eastwest;fontStyle=1" vertex="1" parent="pzczP67oPYf6B7buiO8z-15">
          <mxGeometry y="60" width="180" height="26" as="geometry" />
        </mxCell>
        <mxCell id="pzczP67oPYf6B7buiO8z-18" value="" style="endArrow=block;endSize=10;endFill=0;shadow=0;strokeWidth=1;rounded=0;edgeStyle=elbowEdgeStyle;elbow=vertical;" parent="pzczP67oPYf6B7buiO8z-1" source="pzczP67oPYf6B7buiO8z-15" target="pzczP67oPYf6B7buiO8z-2" edge="1">
          <mxGeometry width="160" relative="1" as="geometry">
            <mxPoint x="190" y="273" as="sourcePoint" />
            <mxPoint x="290" y="171" as="targetPoint" />
          </mxGeometry>
        </mxCell>
      </root>
    </mxGraphModel>
  </diagram>
</mxfile>
